<?xml version="1.0" standalone="no"?>
<!DOCTYPE svg PUBLIC "-//W3C//DTD SVG 20010904//EN"
 "http://www.w3.org/TR/2001/REC-SVG-20010904/DTD/svg10.dtd">
<svg version="1.0" xmlns="http://www.w3.org/2000/svg"
 width="768.000000pt" height="768.000000pt" viewBox="0 0 768.000000 768.000000"
 preserveAspectRatio="xMidYMid meet">
<metadata>
Created by potrace 1.11, written by Peter Selinger 2001-2013
</metadata>
<g transform="translate(0.000000,768.000000) scale(0.100000,-0.100000)"
fill="#000000" stroke="none">
<path d="M3593 7670 c-715 -53 -1414 -302 -1978 -705 -328 -234 -627 -530
-863 -852 -450 -613 -746 -1542 -746 -2338 1 -1051 544 -2186 1378 -2878 581
-482 1266 -772 2056 -869 164 -20 690 -17 865 5 741 94 1391 369 1970 831 142
114 402 377 529 536 630 790 908 1607 865 2543 -22 470 -132 994 -296 1412
-387 984 -1215 1739 -2321 2119 -265 91 -526 151 -787 181 -162 19 -510 27
-672 15z m592 -61 c744 -64 1590 -426 2175 -930 l72 -62 -92 -60 c-50 -32
-170 -95 -265 -138 -251 -114 -379 -142 -764 -163 l-104 -6 6 30 c17 81 19
156 6 166 -24 19 -562 166 -610 167 -26 0 -55 -6 -68 -15 -72 -51 -615 -547
-641 -586 -40 -60 -41 -68 -38 -187 l3 -100 101 -3 100 -3 44 -44 44 -45 83 0
c98 0 92 -5 159 153 l45 108 -25 46 c-20 34 -26 60 -26 103 l0 58 86 73 c47
41 90 76 96 78 5 2 27 -14 48 -34 l38 -38 -81 -77 -81 -77 -4 -65 c-5 -81 12
-103 85 -113 90 -12 89 -5 22 -150 -34 -71 -72 -140 -85 -152 -25 -23 -30 -23
-287 -23 -191 -1 -272 -4 -299 -14 -37 -13 -407 -235 -440 -264 -28 -23 -22
-38 26 -66 49 -29 76 -64 76 -100 0 -32 -15 -39 -119 -62 -61 -13 -93 -25
-115 -45 l-31 -27 -3 -136 -4 -136 146 0 147 0 143 147 143 146 62 5 c70 5 57
16 147 -116 54 -79 56 -84 44 -113 -12 -29 -11 -32 26 -70 21 -22 48 -39 60
-39 12 0 53 24 90 53 88 67 93 90 36 174 -58 86 -103 169 -95 176 17 18 37 -1
111 -101 43 -59 107 -140 141 -180 68 -79 77 -81 102 -19 16 41 25 46 58 38
22 -6 27 -15 33 -54 3 -26 15 -62 25 -80 l19 -32 115 -1 c132 0 152 -5 168
-40 19 -42 4 -89 -37 -118 -59 -40 -86 -46 -220 -46 l-127 0 -25 48 c-21 39
-32 49 -68 61 -23 7 -54 10 -69 6 -35 -8 -103 -77 -103 -103 0 -20 -4 -19
-132 14 -72 19 -133 34 -134 34 -2 0 -4 26 -6 58 l-3 57 -226 -1 -226 -1 -179
-93 c-99 -51 -186 -99 -194 -106 -11 -11 -14 -32 -12 -80 l2 -65 -87 -42
c-135 -65 -133 -59 -133 -344 0 -287 5 -311 91 -418 70 -87 105 -117 169 -150
70 -36 151 -45 391 -45 204 0 218 -1 243 -21 44 -35 57 -72 62 -187 3 -59 10
-121 15 -139 10 -31 47 -70 99 -104 l25 -16 5 -329 5 -329 73 -145 c64 -129
74 -156 88 -245 24 -155 49 -171 259 -163 153 6 191 19 237 82 39 53 82 146
101 220 21 78 37 94 101 98 l51 3 7 45 c3 25 7 191 7 369 l1 324 53 54 c49 48
58 53 99 53 24 0 52 6 61 12 9 7 61 85 115 173 54 88 130 210 169 270 100 158
127 209 120 228 -6 15 -29 17 -206 17 l-199 0 -56 125 c-31 68 -85 194 -120
279 -36 85 -72 169 -81 186 -31 60 -1 132 42 104 10 -6 33 -38 52 -70 67 -118
284 -464 311 -495 37 -45 81 -42 158 8 31 21 120 76 197 124 157 96 185 127
185 209 0 53 -34 119 -70 137 -15 8 -66 13 -132 13 l-107 0 -39 58 c-55 83
-92 148 -92 165 0 15 61 67 79 67 5 0 44 -42 87 -92 43 -51 84 -99 93 -105 10
-9 62 -13 175 -13 238 0 240 -1 306 -153 30 -68 42 -85 84 -114 31 -21 60 -33
82 -33 43 0 42 4 106 -270 28 -118 56 -218 62 -222 6 -4 39 -8 73 -8 78 0 81
4 118 160 15 63 32 121 38 128 15 19 169 113 299 181 l115 61 69 -73 c38 -40
116 -126 174 -191 l104 -119 -2 -66 c-9 -223 -86 -597 -178 -862 -41 -120
-159 -400 -184 -439 -14 -22 -44 0 -48 36 -8 92 -39 114 -160 114 -130 0 -179
-31 -170 -107 4 -33 3 -34 -21 -29 -14 3 -63 11 -108 18 -73 10 -86 10 -121
-6 -49 -22 -116 -90 -136 -136 -8 -19 -17 -57 -21 -83 -6 -40 -12 -50 -34 -58
-19 -8 -154 -30 -238 -39 -1 0 -9 -7 -17 -16 -13 -12 -16 -40 -16 -138 0 -113
2 -126 26 -172 89 -166 84 -150 84 -253 0 -110 13 -141 59 -141 49 0 124 28
209 79 129 77 134 73 42 -28 -314 -340 -766 -656 -1213 -847 l-78 -34 -53 39
c-172 127 -313 181 -476 181 -87 -1 -133 -12 -236 -61 -170 -79 -332 -117
-460 -106 -63 5 -74 1 -53 -20 7 -7 3 -12 -15 -15 -23 -5 -26 -2 -24 20 3 25
-1 27 -97 49 -196 45 -284 56 -385 50 -106 -7 -145 -17 -305 -82 -138 -56
-200 -64 -406 -58 -132 5 -176 2 -227 -11 l-64 -16 -121 51 c-309 130 -643
328 -902 535 -226 181 -516 492 -697 747 -366 516 -619 1169 -693 1787 -16
139 -25 403 -13 415 3 3 73 -47 155 -113 l149 -120 11 -73 c10 -64 17 -78 45
-104 48 -44 163 -79 420 -126 217 -40 268 -55 268 -83 0 -7 14 -40 31 -74 35
-70 85 -113 163 -138 28 -9 54 -19 58 -23 4 -4 -8 -52 -27 -107 -60 -173 -61
-164 42 -365 141 -274 134 -265 246 -290 32 -7 60 -16 62 -19 3 -4 9 -81 15
-171 6 -90 19 -234 30 -319 11 -85 24 -209 30 -275 17 -193 60 -576 71 -622 5
-23 18 -66 29 -97 19 -49 28 -59 88 -97 77 -49 138 -61 166 -33 14 14 16 26
10 63 -13 83 -11 422 3 471 26 95 95 155 305 270 96 53 241 184 257 233 6 18
10 77 9 132 -3 148 28 191 172 240 41 14 84 32 97 40 45 30 89 152 168 465 34
134 33 235 -4 274 -33 35 -104 63 -234 92 -257 57 -336 96 -396 196 -31 53
-95 106 -133 112 -18 3 -55 7 -82 11 -47 5 -56 11 -143 97 l-94 91 -195 -6
c-223 -7 -250 -15 -331 -90 l-48 -45 -70 36 -70 37 -11 58 c-19 98 -42 117
-292 247 l-222 115 1 35 c1 52 10 67 63 105 34 24 101 51 225 91 97 31 197 67
222 80 89 44 148 125 185 253 25 88 46 106 138 121 70 11 109 30 171 81 68 56
80 76 121 208 33 104 41 119 85 162 59 57 117 87 200 100 73 12 89 22 89 57 0
19 -30 56 -120 146 -65 67 -129 133 -140 149 -12 15 -43 42 -68 59 -44 30 -53
33 -147 36 -141 4 -139 3 -177 73 -38 72 -59 84 -168 93 -90 8 -132 -9 -162
-64 -18 -32 -19 -50 -12 -233 l7 -198 -242 121 c-228 114 -243 123 -258 158
-22 53 -13 136 18 167 13 13 110 74 214 135 105 62 199 121 210 131 15 15 20
36 23 94 4 75 4 75 33 75 35 0 157 -43 176 -63 12 -12 12 -25 3 -74 -11 -66
-3 -105 28 -130 9 -8 50 -30 91 -50 91 -45 171 -55 202 -27 27 25 63 96 83
166 24 81 14 100 -78 142 -81 37 -90 48 -101 120 -4 32 -15 56 -31 71 -34 31
-589 240 -636 239 l-37 -1 72 80 c40 44 113 117 162 163 l90 83 25 -32 c13
-18 47 -56 74 -84 l49 -53 118 0 c64 0 125 -3 134 -6 9 -4 61 -84 117 -178
289 -489 330 -556 348 -566 48 -25 66 -1 110 150 l25 85 50 8 c89 15 94 17
120 40 20 17 31 43 46 107 11 46 27 92 35 101 10 11 39 20 86 24 123 13 158
65 179 268 6 61 20 135 31 164 23 61 93 161 131 186 15 9 36 36 48 59 18 35
20 55 17 134 -1 51 -6 96 -10 100 -10 10 -492 -13 -663 -32 -114 -13 -165 -24
-275 -61 -150 -50 -311 -112 -440 -168 -100 -43 -98 -39 40 52 339 225 659
371 1065 488 452 130 909 174 1380 134z m-1655 -643 c0 -2 -7 -7 -16 -10 -8
-3 -12 -2 -9 4 6 10 25 14 25 6z m85 -6 c3 -6 -1 -7 -9 -4 -18 7 -21 14 -7 14
6 0 13 -4 16 -10z m-789 -66 c-3 -12 -2 -26 4 -29 14 -9 12 -35 -2 -32 -17 3
-26 25 -27 64 -1 26 2 31 15 26 10 -4 14 -13 10 -29z m641 14 c-3 -8 -6 -5 -6
6 -1 11 2 17 5 13 3 -3 4 -12 1 -19z m-907 -87 l0 -39 -51 -7 c-27 -4 -52 -5
-55 -2 -3 3 93 84 104 86 1 1 2 -17 2 -38z m328 -25 c22 -7 32 -36 12 -36 -5
0 -10 5 -10 11 0 5 -4 7 -10 4 -5 -3 -10 -1 -10 5 0 8 -6 8 -20 0 -19 -10 -19
-9 -8 15 6 14 14 22 17 17 3 -5 16 -12 29 -16z m-84 -11 c-4 -8 -10 -13 -14
-10 -4 3 -11 -2 -14 -11 -3 -8 -10 -13 -15 -10 -5 4 -12 0 -14 -6 -4 -9 -6 -7
-6 3 -1 9 6 22 14 29 8 7 15 9 15 4 0 -4 5 -3 12 4 17 17 29 15 22 -3z m773
-37 c-3 -8 -6 -5 -6 6 -1 11 2 17 5 13 3 -3 4 -12 1 -19z m-141 -124 c-3 -12
-2 -26 4 -29 16 -10 11 -32 -8 -37 -16 -4 -18 2 -18 47 1 40 4 51 14 47 9 -3
11 -13 8 -28z m-376 2 c0 -2 -7 -7 -16 -10 -8 -3 -12 -2 -9 4 6 10 25 14 25 6z
m85 -6 c3 -6 -1 -7 -9 -4 -18 7 -21 14 -7 14 6 0 13 -4 16 -10z m-148 -52 c-3
-8 -6 -5 -6 6 -1 11 2 17 5 13 3 -3 4 -12 1 -19z m413 -54 c0 -14 -4 -23 -9
-20 -5 3 -12 -1 -15 -10 -3 -8 -10 -12 -16 -9 -5 3 -10 2 -10 -3 0 -5 -7 -9
-14 -9 -11 0 -13 5 -5 19 6 10 14 16 19 13 5 -3 17 6 27 19 23 32 23 32 23 0z
m30 16 c0 -5 -2 -10 -4 -10 -3 0 -8 5 -11 10 -3 6 -1 10 4 10 6 0 11 -4 11
-10z m64 -13 c3 3 6 1 6 -6 0 -7 5 -9 10 -6 6 3 10 2 10 -4 0 -15 -23 -26 -28
-13 -2 7 -8 10 -13 6 -11 -6 -41 21 -32 29 3 4 13 2 23 -3 10 -5 20 -6 24 -3z
m2221 -26 c-3 -11 -1 -22 5 -26 6 -4 8 -16 5 -26 -4 -11 -2 -26 4 -33 9 -11 6
-15 -12 -18 -24 -5 -24 -3 -24 59 1 46 5 63 15 63 9 0 11 -7 7 -19z m-2179
-18 c-10 -10 -19 5 -10 18 6 11 8 11 12 0 2 -7 1 -15 -2 -18z m-439 -65 c-3
-8 -6 -5 -6 6 -1 11 2 17 5 13 3 -3 4 -12 1 -19z m2628 -37 c3 -5 1 -12 -5
-16 -5 -3 -10 1 -10 9 0 18 6 21 15 7z m-26 -32 c9 -27 9 -29 -3 -19 -12 9
-19 7 -35 -9 -12 -12 -21 -19 -21 -16 0 3 -10 1 -22 -5 l-23 -11 22 19 c12 11
19 23 15 27 -4 5 -2 5 5 1 7 -3 20 4 30 18 10 14 19 26 20 26 0 0 6 -14 12
-31z m115 -2 c3 4 6 1 6 -6 0 -7 4 -10 9 -7 10 6 25 -24 16 -32 -3 -3 -5 0 -5
7 0 8 -7 11 -15 7 -8 -3 -15 -1 -15 5 0 6 -7 9 -15 5 -8 -3 -15 -1 -15 4 0 5
-7 7 -15 4 -8 -4 -15 -1 -15 6 0 6 -5 8 -12 4 -9 -6 -9 -3 1 9 12 15 16 15 41
2 15 -8 30 -11 34 -8z m-3894 -107 c-45 -89 -41 -114 27 -177 l57 -53 -21 -22
-22 -21 -81 73 c-52 47 -77 76 -72 84 35 46 138 176 140 176 1 0 -11 -27 -28
-60z m5463 43 c-7 -2 -21 -2 -30 0 -10 3 -4 5 12 5 17 0 24 -2 18 -5z m-53 -7
c0 -2 -8 -10 -17 -17 -16 -13 -17 -12 -4 4 13 16 21 21 21 13z m177 -2 c-3 -3
-12 -4 -19 -1 -8 3 -5 6 6 6 11 1 17 -2 13 -5z m84 -51 c13 -16 12 -17 -3 -4
-10 7 -18 15 -18 17 0 8 8 3 21 -13z m-936 -162 c-3 -11 -1 -22 5 -26 6 -4 8
-16 5 -26 -4 -11 -2 -26 4 -33 9 -11 6 -15 -12 -18 -24 -5 -24 -3 -24 59 1 46
5 63 15 63 9 0 11 -7 7 -19z m586 -38 c13 -16 12 -17 -3 -4 -10 7 -18 15 -18
17 0 8 8 3 21 -13z m-2238 -8 c-3 -9 -8 -14 -10 -11 -3 3 -2 9 2 15 9 16 15
13 8 -4z m1060 -32 c-7 -2 -21 -2 -30 0 -10 3 -4 5 12 5 17 0 24 -2 18 -5z
m-53 -7 c0 -2 -8 -10 -17 -17 -16 -13 -17 -12 -4 4 13 16 21 21 21 13z m177
-2 c-3 -3 -12 -4 -19 -1 -8 3 -5 6 6 6 11 1 17 -2 13 -5z m1148 -14 c3 -6 -1
-7 -9 -4 -18 7 -21 14 -7 14 6 0 13 -4 16 -10z m-2311 -29 c-2 -3 -12 3 -22
13 -16 17 -16 18 5 5 12 -7 20 -15 17 -18z m86 14 c0 -2 -10 -9 -22 -15 -22
-11 -22 -10 -4 4 21 17 26 19 26 11z m1555 -4 c3 -5 1 -12 -5 -16 -5 -3 -10 1
-10 9 0 18 6 21 15 7z m-394 -18 c13 -16 12 -17 -3 -4 -10 7 -18 15 -18 17 0
8 8 3 21 -13z m368 -14 c9 -27 9 -29 -3 -19 -12 9 -19 7 -35 -9 -12 -12 -21
-19 -21 -16 0 3 -10 1 -22 -5 l-23 -11 22 19 c12 11 19 23 15 27 -4 5 -2 5 5
1 7 -3 20 4 30 18 10 14 19 26 20 26 0 0 6 -14 12 -31z m115 -2 c3 4 6 1 6 -6
0 -7 4 -10 9 -7 10 6 25 -24 16 -32 -3 -3 -5 0 -5 7 0 8 -7 11 -15 7 -8 -3
-15 -1 -15 5 0 6 -7 9 -15 5 -8 -3 -15 -1 -15 4 0 5 -7 7 -15 4 -8 -4 -15 -1
-15 6 0 6 -5 8 -12 4 -9 -6 -9 -3 1 9 12 15 16 15 41 2 15 -8 30 -11 34 -8z
m-833 -184 c13 -16 12 -17 -3 -4 -17 13 -22 21 -14 21 2 0 10 -8 17 -17z m94
-63 c3 -6 -1 -7 -9 -4 -18 7 -21 14 -7 14 6 0 13 -4 16 -10z m-735 -174 c0 -2
-7 -7 -16 -10 -8 -3 -12 -2 -9 4 6 10 25 14 25 6z m85 -6 c3 -6 -1 -7 -9 -4
-18 7 -21 14 -7 14 6 0 13 -4 16 -10z m1513 3 c-10 -2 -28 -2 -40 0 -13 2 -5
4 17 4 22 1 32 -1 23 -4z m-1661 -55 c-3 -8 -6 -5 -6 6 -1 11 2 17 5 13 3 -3
4 -12 1 -19z m-197 -54 c0 -13 -4 -24 -9 -24 -11 0 -21 25 -21 52 0 17 3 18
15 8 8 -7 15 -23 15 -36z m1727 24 c-3 -8 -6 -5 -6 6 -1 11 2 17 5 13 3 -3 4
-12 1 -19z m-4132 -38 c3 -6 -1 -7 -9 -4 -18 7 -21 14 -7 14 6 0 13 -4 16 -10z
m3140 -19 c-3 -11 -1 -22 5 -26 6 -4 8 -16 5 -26 -4 -11 -2 -26 4 -33 9 -11 6
-15 -12 -18 -24 -5 -24 -3 -24 59 1 46 5 63 15 63 9 0 11 -7 7 -19z m2073 12
c-10 -2 -28 -2 -40 0 -13 2 -5 4 17 4 22 1 32 -1 23 -4z m-5335 -23 c-3 -12
-8 -19 -11 -16 -5 6 5 36 12 36 2 0 2 -9 -1 -20z m2597 -32 c0 -10 -1 -10 -38
3 -19 6 -29 16 -26 24 4 11 11 10 35 -3 16 -10 29 -20 29 -24z m-109 0 c-13
-10 -27 -15 -32 -12 -5 3 1 14 13 24 13 10 27 16 32 12 5 -3 -1 -13 -13 -24z
m2739 28 c0 -2 -8 -10 -17 -17 -16 -13 -17 -12 -4 4 13 16 21 21 21 13z
m-6116 -21 c-10 -8 -23 -15 -28 -15 -6 0 -1 7 10 15 10 8 23 15 28 15 6 0 1
-7 -10 -15z m53 9 c-3 -3 -12 -4 -19 -1 -8 3 -5 6 6 6 11 1 17 -2 13 -5z
m5346 -9 c-3 -9 -8 -14 -10 -11 -3 3 -2 9 2 15 9 16 15 13 8 -4z m-2273 -19
c0 -2 -7 -7 -16 -10 -8 -3 -12 -2 -9 4 6 10 25 14 25 6z m85 -6 c3 -6 -1 -7
-9 -4 -18 7 -21 14 -7 14 6 0 13 -4 16 -10z m512 -12 c-3 -8 -6 -5 -6 6 -1 11
2 17 5 13 3 -3 4 -12 1 -19z m1464 5 c13 -16 12 -17 -3 -4 -10 7 -18 15 -18
17 0 8 8 3 21 -13z m-3945 -39 c-4 -13 -2 -26 4 -29 16 -10 12 -22 -10 -28
-17 -4 -19 0 -19 49 1 47 3 53 16 43 9 -8 12 -21 9 -35z m4139 36 c-3 -5 -12
-10 -18 -10 -7 0 -6 4 3 10 19 12 23 12 15 0z m-5448 -32 c-3 -8 -6 -5 -6 6
-1 11 2 17 5 13 3 -3 4 -12 1 -19z m1013 -24 c0 -3 -13 4 -30 16 -16 12 -30
24 -30 26 0 3 14 -4 30 -16 17 -12 30 -24 30 -26z m2477 24 c-3 -8 -6 -5 -6 6
-1 11 2 17 5 13 3 -3 4 -12 1 -19z m-360 -10 c-3 -8 -6 -5 -6 6 -1 11 2 17 5
13 3 -3 4 -12 1 -19z m2748 3 c-3 -11 -1 -22 5 -26 6 -4 8 -16 5 -26 -4 -11
-2 -26 4 -33 9 -11 6 -15 -12 -18 -24 -5 -24 -3 -24 59 1 46 5 63 15 63 9 0
11 -7 7 -19z m-2418 -23 c-3 -8 -6 -5 -6 6 -1 11 2 17 5 13 3 -3 4 -12 1 -19z
m768 13 c3 -5 1 -12 -5 -16 -5 -3 -10 1 -10 9 0 18 6 21 15 7z m-26 -32 c9
-27 9 -29 -3 -19 -12 9 -19 7 -35 -9 -12 -12 -21 -19 -21 -16 0 3 -10 1 -22
-5 l-23 -11 22 19 c12 11 19 23 15 27 -4 5 -2 5 5 1 7 -3 20 4 30 18 10 14 19
26 20 26 0 0 6 -14 12 -31z m115 -2 c3 4 6 1 6 -6 0 -7 4 -10 8 -7 4 2 13 -4
20 -15 7 -11 8 -19 2 -19 -5 0 -10 5 -10 11 0 6 -7 9 -15 5 -8 -3 -15 -1 -15
5 0 6 -7 9 -15 5 -8 -3 -15 -1 -15 4 0 5 -7 7 -15 4 -8 -4 -15 -1 -15 6 0 6
-5 8 -12 4 -9 -6 -9 -3 1 9 12 15 16 15 41 2 15 -8 30 -11 34 -8z m-4081 -42
c-3 -9 -8 -14 -10 -11 -3 3 -2 9 2 15 9 16 15 13 8 -4z m1123 -5 c8 0 14 -5
14 -11 0 -5 5 -7 10 -4 6 3 10 1 10 -5 0 -6 4 -9 9 -6 5 3 11 -1 15 -9 6 -17
-9 -21 -19 -5 -4 6 -10 8 -15 5 -5 -3 -11 -1 -15 5 -4 6 -11 8 -16 5 -5 -4 -9
-1 -9 6 0 8 -4 8 -16 -1 -13 -12 -14 -10 -2 14 7 16 14 23 16 17 2 -6 10 -11
18 -11z m4835 -7 c13 -16 12 -17 -3 -4 -10 7 -18 15 -18 17 0 8 8 3 21 -13z
m-4917 -17 c-3 -9 -10 -13 -15 -10 -5 3 -9 0 -9 -5 0 -6 -7 -11 -15 -11 -8 0
-15 -4 -15 -10 0 -5 -5 -10 -10 -10 -6 0 -1 13 11 30 12 16 26 27 30 24 4 -2
11 1 14 7 10 15 17 5 9 -15z m5131 14 c-3 -5 -12 -10 -18 -10 -7 0 -6 4 3 10
19 12 23 12 15 0z m-520 -19 c3 -5 1 -12 -5 -16 -5 -3 -10 1 -10 9 0 18 6 21
15 7z m365 -16 c13 -14 21 -25 18 -25 -2 0 -15 11 -28 25 -13 14 -21 25 -18
25 2 0 15 -11 28 -25z m-5722 8 c0 -5 2 -16 6 -25 9 -21 1 -48 -14 -48 -5 0
-10 18 -10 40 0 22 5 40 10 40 6 0 9 -3 8 -7z m5331 -24 c9 -27 9 -29 -3 -19
-12 9 -19 7 -35 -9 -12 -12 -21 -19 -21 -16 0 3 -10 1 -22 -5 l-23 -11 22 19
c12 11 19 23 15 27 -4 5 -2 5 5 1 7 -3 20 4 30 18 10 14 19 26 20 26 0 0 6
-14 12 -31z m115 -2 c3 4 6 1 6 -6 0 -7 4 -10 9 -7 10 6 25 -24 16 -32 -3 -3
-5 0 -5 7 0 8 -7 11 -15 7 -8 -3 -15 -1 -15 5 0 6 -7 9 -15 5 -8 -3 -15 -1
-15 4 0 5 -7 7 -15 4 -8 -4 -15 -1 -15 6 0 6 -5 8 -12 4 -9 -6 -9 -3 1 9 12
15 16 15 41 2 15 -8 30 -11 34 -8z m-2737 -9 c-3 -8 -6 -5 -6 6 -1 11 2 17 5
13 3 -3 4 -12 1 -19z m-2627 -88 c0 -6 -4 -10 -10 -10 -5 0 -10 5 -10 10 0 6
-3 9 -7 9 -26 -4 -42 3 -37 16 5 13 9 13 35 -1 16 -8 29 -19 29 -24z m-96 21
c7 -10 -43 -46 -51 -37 -7 7 26 46 38 46 4 0 10 -4 13 -9z m33 -73 c-3 -8 -6
-5 -6 6 -1 11 2 17 5 13 3 -3 4 -12 1 -19z m4183 -2 c0 -2 -7 -7 -16 -10 -8
-3 -12 -2 -9 4 6 10 25 14 25 6z m85 -6 c3 -6 -1 -7 -9 -4 -18 7 -21 14 -7 14
6 0 13 -4 16 -10z m302 -60 c-1 -17 -7 -30 -13 -30 -6 0 -10 10 -8 23 1 12 3
28 3 35 1 7 5 11 11 7 5 -3 8 -19 7 -35z m-450 8 c-3 -8 -6 -5 -6 6 -1 11 2
17 5 13 3 -3 4 -12 1 -19z m-4867 -2 c0 -2 -7 -7 -16 -10 -8 -3 -12 -2 -9 4 6
10 25 14 25 6z m85 -6 c3 -6 -1 -7 -9 -4 -18 7 -21 14 -7 14 6 0 13 -4 16 -10z
m1190 -20 c3 -6 -1 -7 -9 -4 -18 7 -21 14 -7 14 6 0 13 -4 16 -10z m-1338 -32
c-3 -8 -6 -5 -6 6 -1 11 2 17 5 13 3 -3 4 -12 1 -19z m1216 2 c-3 -12 -8 -19
-11 -16 -5 6 5 36 12 36 2 0 2 -9 -1 -20z m4162 0 c3 -5 1 -10 -4 -10 -6 0
-11 5 -11 10 0 6 2 10 4 10 3 0 8 -4 11 -10z m36 -9 c2 2 13 -2 24 -8 16 -10
18 -14 8 -24 -10 -9 -13 -10 -13 -1 0 6 -7 9 -15 6 -8 -4 -15 -1 -15 6 0 6 -4
9 -9 6 -5 -4 -7 3 -4 15 4 13 8 17 13 9 4 -6 9 -10 11 -9z m-61 -18 c0 -8 -5
-11 -10 -8 -6 3 -13 -1 -16 -9 -3 -9 -10 -13 -15 -10 -5 3 -9 0 -9 -7 0 -7 -3
-10 -6 -7 -3 4 2 17 10 30 17 27 46 33 46 11z m1678 10 c-10 -2 -26 -2 -35 0
-10 3 -2 5 17 5 19 0 27 -2 18 -5z m136 -18 c25 -19 16 -19 -20 0 -16 8 -22
15 -14 15 8 -1 24 -7 34 -15z m-1689 -23 c-8 -8 -25 10 -19 20 4 6 9 5 15 -3
4 -7 6 -15 4 -17z m1445 4 c0 -2 -8 -10 -17 -17 -16 -13 -17 -12 -4 4 13 16
21 21 21 13z m-5650 -62 c0 -3 -13 4 -30 16 -16 12 -30 24 -30 26 0 3 14 -4
30 -16 17 -12 30 -24 30 -26z m4117 24 c-3 -8 -6 -5 -6 6 -1 11 2 17 5 13 3
-3 4 -12 1 -19z m506 15 c-7 -2 -19 -2 -25 0 -7 3 -2 5 12 5 14 0 19 -2 13 -5z
m-856 -25 c-3 -8 -6 -5 -6 6 -1 11 2 17 5 13 3 -3 4 -12 1 -19z m-4930 -60
c-3 -8 -6 -5 -6 6 -1 11 2 17 5 13 3 -3 4 -12 1 -19z m5680 0 c-3 -8 -6 -5 -6
6 -1 11 2 17 5 13 3 -3 4 -12 1 -19z m-5160 -20 c-3 -8 -6 -5 -6 6 -1 11 2 17
5 13 3 -3 4 -12 1 -19z m173 -65 c-11 -17 -11 -17 -6 0 3 10 6 24 7 30 0 9 2
9 5 0 3 -7 0 -20 -6 -30z m6397 -5 c-3 -8 -6 -5 -6 6 -1 11 2 17 5 13 3 -3 4
-12 1 -19z m-6546 -15 c13 -16 12 -17 -3 -4 -10 7 -18 15 -18 17 0 8 8 3 21
-13z m40 -30 c13 -16 12 -17 -3 -4 -10 7 -18 15 -18 17 0 8 8 3 21 -13z m5185
-15 l19 -23 -25 20 c-14 11 -27 21 -29 22 -2 2 0 3 6 3 5 0 18 -10 29 -22z
m-1671 -157 c-3 -11 -1 -22 5 -26 6 -4 8 -16 5 -26 -4 -11 -2 -26 4 -33 9 -11
6 -15 -12 -18 -24 -5 -24 -3 -24 59 1 46 5 63 15 63 9 0 11 -7 7 -19z m853
-43 c-2 -12 -9 -23 -15 -26 -9 -2 -13 10 -13 44 0 47 1 48 16 26 8 -12 14 -32
12 -44z m-4591 -14 c-2 -13 0 -24 4 -24 5 0 9 -7 9 -15 0 -20 -26 -19 -34 1
-3 9 -6 29 -6 45 0 22 4 27 16 22 10 -4 14 -14 11 -29z m4643 -59 c0 -8 -4
-15 -10 -15 -5 0 -10 4 -10 10 0 5 -6 7 -14 4 -11 -4 -13 0 -9 15 4 17 9 19
24 10 10 -5 19 -16 19 -24z m-87 -12 c-9 -7 -22 -13 -29 -13 -7 0 -14 -6 -17
-12 -2 -7 -7 -10 -11 -7 -9 9 34 60 45 54 5 -4 9 0 9 7 0 9 3 9 10 -2 7 -11 5
-19 -7 -27z m-808 8 c3 -5 1 -12 -5 -16 -5 -3 -10 1 -10 9 0 18 6 21 15 7z
m927 -5 c7 4 8 2 4 -4 -11 -18 -26 -14 -25 6 0 10 3 12 6 4 2 -6 10 -9 15 -6z
m-953 -27 c9 -27 9 -29 -3 -19 -12 9 -19 7 -35 -9 -12 -12 -21 -19 -21 -16 0
3 -10 1 -22 -5 l-23 -11 22 19 c12 11 19 23 15 27 -4 5 -2 5 5 1 7 -3 20 4 30
18 10 14 19 26 20 26 0 0 6 -14 12 -31z m-3744 12 c7 -12 -35 -52 -47 -45 -4
3 -8 0 -8 -5 0 -6 -5 -11 -10 -11 -7 0 -7 6 0 20 6 11 17 20 26 20 8 0 17 7
20 15 7 17 11 19 19 6z m78 -6 c8 -8 17 -12 20 -9 2 3 7 -2 11 -11 5 -13 2
-15 -17 -9 -12 5 -32 8 -44 9 -17 0 -19 3 -12 18 12 21 23 22 42 2z m3781 -8
c3 4 6 1 6 -6 0 -7 4 -10 9 -7 10 6 25 -24 16 -32 -3 -3 -5 0 -5 7 0 8 -7 11
-15 7 -8 -3 -15 -1 -15 5 0 6 -7 9 -15 5 -8 -3 -15 -1 -15 4 0 5 -7 7 -15 4
-8 -4 -15 -1 -15 6 0 6 -5 8 -12 4 -9 -6 -9 -3 1 9 12 15 16 15 41 2 15 -8 30
-11 34 -8z m2233 17 c-3 -3 -12 -4 -19 -1 -8 3 -5 6 6 6 11 1 17 -2 13 -5z
m-6453 -13 c4 -5 -3 -7 -14 -4 -23 6 -26 13 -6 13 8 0 17 -4 20 -9z m6368 -13
c-5 -7 -12 -22 -15 -33 -5 -20 -5 -20 -6 1 0 11 4 25 11 32 16 16 23 15 10 0z
m179 -5 c13 -16 12 -17 -3 -4 -10 7 -18 15 -18 17 0 8 8 3 21 -13z m-1594 -25
c-3 -8 -6 -5 -6 6 -1 11 2 17 5 13 3 -3 4 -12 1 -19z m-1277 -2 c0 -2 -7 -7
-16 -10 -8 -3 -12 -2 -9 4 6 10 25 14 25 6z m165 -6 c3 -6 -1 -7 -9 -4 -18 7
-21 14 -7 14 6 0 13 -4 16 -10z m3243 3 c0 -5 2 -16 6 -25 9 -21 1 -48 -14
-48 -5 0 -10 18 -10 40 0 22 5 40 10 40 6 0 9 -3 8 -7z m-3441 -45 c-3 -8 -6
-5 -6 6 -1 11 2 17 5 13 3 -3 4 -12 1 -19z m2905 -20 c-8 -8 -9 -4 -5 13 4 13
8 18 11 10 2 -7 -1 -18 -6 -23z m-6616 -50 c4 -7 -9 1 -29 16 -20 16 -37 30
-37 33 0 7 58 -36 66 -49z m7234 -8 c0 -6 -4 -10 -10 -10 -5 0 -10 5 -10 10 0
6 -3 9 -7 9 -26 -4 -42 3 -37 16 5 13 9 13 35 -1 16 -8 29 -19 29 -24z m-7195
21 c3 -5 2 -12 -3 -15 -5 -3 -9 1 -9 9 0 17 3 19 12 6z m7099 0 c7 -10 -43
-46 -51 -37 -7 7 26 46 38 46 4 0 10 -4 13 -9z m-1868 -38 c-11 -11 -19 6 -11
24 8 17 8 17 12 0 3 -10 2 -21 -1 -24z m1215 20 c13 -17 13 -17 -6 -3 -11 8
-22 16 -24 17 -2 2 0 3 6 3 6 0 17 -8 24 -17z m-2727 -32 c-2 -3 -12 3 -22 13
-16 17 -16 18 5 5 12 -7 20 -15 17 -18z m740 14 c-10 -8 -23 -15 -28 -15 -6 0
-1 7 10 15 10 8 23 15 28 15 6 0 1 -7 -10 -15z m53 9 c-3 -3 -12 -4 -19 -1 -8
3 -5 6 6 6 11 1 17 -2 13 -5z m-4520 -26 c-3 -8 -6 -5 -6 6 -1 11 2 17 5 13 3
-3 4 -12 1 -19z m3850 6 c-3 -3 -12 -4 -19 -1 -8 3 -5 6 6 6 11 1 17 -2 13 -5z
m1403 -25 c0 -5 -4 -9 -10 -9 -5 0 -10 7 -10 16 0 8 5 12 10 9 6 -3 10 -10 10
-16z m1887 -1 c-3 -8 -6 -5 -6 6 -1 11 2 17 5 13 3 -3 4 -12 1 -19z m-2740
-30 c-3 -8 -6 -5 -6 6 -1 11 2 17 5 13 3 -3 4 -12 1 -19z m918 -35 c2 -7 0
-13 -5 -13 -6 0 -10 4 -10 10 0 5 -7 7 -15 4 -8 -4 -15 -1 -15 6 0 9 -4 9 -17
-1 -15 -13 -15 -12 -5 7 6 12 8 25 4 29 -4 4 8 -1 25 -12 18 -10 35 -24 38
-30z m-2268 21 c-3 -3 -12 -4 -19 -1 -8 3 -5 6 6 6 11 1 17 -2 13 -5z m2178
-15 c4 -11 4 -23 1 -26 -3 -4 -6 2 -6 12 0 13 -3 15 -13 6 -8 -6 -17 -8 -20
-4 -4 3 -7 2 -7 -4 0 -6 -7 -14 -16 -17 -17 -6 -12 6 14 37 20 23 39 22 47 -4z
m-2240 1 c-3 -5 -12 -10 -18 -10 -7 0 -6 4 3 10 19 12 23 12 15 0z m455 -66
c0 -12 -7 -24 -15 -28 -12 -4 -15 4 -15 41 0 43 1 45 15 27 8 -10 15 -29 15
-40z m-503 4 c-3 -8 -6 -5 -6 6 -1 11 2 17 5 13 3 -3 4 -12 1 -19z m1696 -3
c-3 -9 -8 -14 -10 -11 -3 3 -2 9 2 15 9 16 15 13 8 -4z m624 -57 c-3 -8 -6 -5
-6 6 -1 11 2 17 5 13 3 -3 4 -12 1 -19z m-1837 -19 c0 -9 -67 -38 -74 -32 -3
4 9 19 26 34 30 24 47 24 48 -2z m60 9 c0 -5 5 -6 10 -3 6 3 10 -1 10 -9 0
-21 -44 -5 -48 18 -2 11 1 14 12 10 9 -3 16 -10 16 -16z m-327 -13 c-3 -9 -8
-14 -10 -11 -3 3 -2 9 2 15 9 16 15 13 8 -4z m-2769 -4 c4 -5 -3 -7 -14 -4
-23 6 -26 13 -6 13 8 0 17 -4 20 -9z m2587 -18 c13 -16 12 -17 -3 -4 -10 7
-18 15 -18 17 0 8 8 3 21 -13z m-2655 -145 c4 -7 -9 1 -29 16 -20 16 -37 30
-37 33 0 7 58 -36 66 -49z m39 13 c3 -5 2 -12 -3 -15 -5 -3 -9 1 -9 9 0 17 3
19 12 6z m-8 -53 c-3 -8 -6 -5 -6 6 -1 11 2 17 5 13 3 -3 4 -12 1 -19z m3577
-183 c-10 -8 -23 -15 -28 -15 -6 0 -1 7 10 15 10 8 23 15 28 15 6 0 1 -7 -10
-15z m53 9 c-3 -3 -12 -4 -19 -1 -8 3 -5 6 6 6 11 1 17 -2 13 -5z m-120 -76
c-3 -8 -6 -5 -6 6 -1 11 2 17 5 13 3 -3 4 -12 1 -19z m-2407 -2 c0 -2 -7 -7
-16 -10 -8 -3 -12 -2 -9 4 6 10 25 14 25 6z m85 -6 c3 -6 -1 -7 -9 -4 -18 7
-21 14 -7 14 6 0 13 -4 16 -10z m3212 -16 c-3 -3 -12 -4 -19 -1 -8 3 -5 6 6 6
11 1 17 -2 13 -5z m-3360 -36 c-3 -8 -6 -5 -6 6 -1 11 2 17 5 13 3 -3 4 -12 1
-19z m3260 -30 c-3 -7 -5 -2 -5 12 0 14 2 19 5 13 2 -7 2 -19 0 -25z m-554 -3
c-3 -9 -8 -14 -10 -11 -3 3 -2 9 2 15 9 16 15 13 8 -4z m272 -4 c-3 -11 -1
-22 5 -26 6 -4 8 -16 5 -26 -4 -11 -2 -26 4 -33 9 -11 6 -15 -12 -18 -24 -5
-24 -3 -24 59 1 46 5 63 15 63 9 0 11 -7 7 -19z m-2868 -123 c-3 -8 -6 -5 -6
6 -1 11 2 17 5 13 3 -3 4 -12 1 -19z m2878 3 c3 -5 1 -12 -5 -16 -5 -3 -10 1
-10 9 0 18 6 21 15 7z m-26 -32 c9 -27 9 -29 -3 -19 -12 9 -19 7 -35 -9 -12
-12 -21 -19 -21 -16 0 3 -10 1 -22 -5 l-23 -11 22 19 c12 11 19 23 15 27 -4 5
-2 5 5 1 7 -3 20 4 30 18 10 14 19 26 20 26 0 0 6 -14 12 -31z m115 -2 c3 4 6
1 6 -6 0 -7 4 -10 9 -7 10 6 25 -24 16 -32 -3 -3 -5 0 -5 7 0 8 -7 11 -15 7
-8 -3 -15 -1 -15 5 0 6 -7 9 -15 5 -8 -3 -15 -1 -15 4 0 5 -7 7 -15 4 -8 -4
-15 -1 -15 6 0 6 -5 8 -12 4 -9 -6 -9 -3 1 9 12 15 16 15 41 2 15 -8 30 -11
34 -8z m-3244 -201 c0 -2 -7 -7 -16 -10 -8 -3 -12 -2 -9 4 6 10 25 14 25 6z
m85 -6 c3 -6 -1 -7 -9 -4 -18 7 -21 14 -7 14 6 0 13 -4 16 -10z m-148 -52 c-3
-8 -6 -5 -6 6 -1 11 2 17 5 13 3 -3 4 -12 1 -19z m1048 -58 c3 -6 -1 -7 -9 -4
-18 7 -21 14 -7 14 6 0 13 -4 16 -10z m-132 -30 c-3 -12 -8 -19 -11 -16 -5 6
5 36 12 36 2 0 2 -9 -1 -20z m1973 -46 c-4 -9 -1 -22 5 -30 12 -14 3 -57 -10
-49 -15 9 -21 79 -8 87 18 11 20 10 13 -8z m-1548 -56 c-2 -12 -9 -23 -15 -26
-9 -2 -13 10 -13 44 0 47 1 48 16 26 8 -12 14 -32 12 -44z m-1231 30 c-3 -8
-6 -5 -6 6 -1 11 2 17 5 13 3 -3 4 -12 1 -19z m3170 -80 c-3 -8 -6 -5 -6 6 -1
11 2 17 5 13 3 -3 4 -12 1 -19z m-2270 -10 c-3 -8 -6 -5 -6 6 -1 11 2 17 5 13
3 -3 4 -12 1 -19z m383 -13 c0 -8 -4 -15 -10 -15 -5 0 -10 4 -10 10 0 5 -6 7
-14 4 -11 -4 -13 0 -9 15 4 17 9 19 24 10 10 -5 19 -16 19 -24z m-87 -12 c-9
-7 -22 -13 -29 -13 -7 0 -14 -6 -17 -12 -2 -7 -7 -10 -11 -7 -9 9 34 60 45 54
5 -4 9 0 9 7 0 9 3 9 10 -2 7 -11 5 -19 -7 -27z m1597 33 c0 -3 -4 -8 -10 -11
-5 -3 -10 -1 -10 4 0 6 5 11 10 11 6 0 10 -2 10 -4z m35 -16 c4 -6 11 -8 16
-5 5 4 9 1 9 -5 0 -6 5 -8 10 -5 6 3 10 1 10 -5 0 -6 5 -8 10 -5 6 3 10 -1 10
-11 0 -13 -3 -14 -15 -4 -8 7 -15 9 -15 5 0 -4 -7 -2 -15 5 -8 7 -15 9 -15 5
0 -4 -6 -2 -13 4 -8 6 -17 8 -21 4 -4 -4 -4 0 0 10 7 19 20 22 29 7z m-1513
-14 c7 4 8 2 4 -4 -11 -18 -26 -14 -25 6 0 10 3 12 6 4 2 -6 10 -9 15 -6z
m1448 -2 c0 -8 -4 -12 -10 -9 -5 3 -10 1 -10 -5 0 -6 -5 -8 -10 -5 -6 3 -13
-1 -16 -9 -3 -9 -10 -13 -15 -10 -5 3 -9 0 -9 -5 0 -6 -5 -11 -10 -11 -6 0 -3
11 7 24 10 13 21 22 24 20 4 -2 12 3 19 11 16 19 30 19 30 -1z m-1553 -66 c-3
-8 -6 -5 -6 6 -1 11 2 17 5 13 3 -3 4 -12 1 -19z m-917 -259 c0 -10 -4 -20 -9
-23 -10 -7 -21 17 -21 46 0 17 3 18 15 8 8 -7 15 -21 15 -31z m557 35 c-3 -3
-12 -4 -19 -1 -8 3 -5 6 6 6 11 1 17 -2 13 -5z m-62 -14 c-3 -5 -12 -10 -18
-10 -7 0 -6 4 3 10 19 12 23 12 15 0z m-48 -62 c-3 -8 -6 -5 -6 6 -1 11 2 17
5 13 3 -3 4 -12 1 -19z m-387 -30 c0 -22 -43 -2 -53 24 -5 15 -4 15 24 0 16
-9 29 -20 29 -24z m2447 10 c-3 -8 -6 -5 -6 6 -1 11 2 17 5 13 3 -3 4 -12 1
-19z m-2527 2 c0 -5 -13 -16 -30 -25 -33 -17 -38 -11 -13 17 17 19 43 24 43 8z
m27 -72 c-3 -8 -6 -5 -6 6 -1 11 2 17 5 13 3 -3 4 -12 1 -19z m656 7 c-3 -9
-8 -14 -10 -11 -3 3 -2 9 2 15 9 16 15 13 8 -4z m4204 -7 c-3 -8 -6 -5 -6 6
-1 11 2 17 5 13 3 -3 4 -12 1 -19z m-4386 -15 c13 -16 12 -17 -3 -4 -10 7 -18
15 -18 17 0 8 8 3 21 -13z m-504 -15 c-3 -8 -6 -5 -6 6 -1 11 2 17 5 13 3 -3
4 -12 1 -19z m5063 -35 c-11 -17 -11 -17 -6 0 3 10 6 24 7 30 0 9 2 9 5 0 3
-7 0 -20 -6 -30z m-149 -20 c13 -16 12 -17 -3 -4 -17 13 -22 21 -14 21 2 0 10
-8 17 -17z m40 -30 c13 -16 12 -17 -3 -4 -10 7 -18 15 -18 17 0 8 8 3 21 -13z
m-4423 -140 c0 -5 2 -16 6 -25 9 -21 1 -48 -14 -48 -5 0 -10 18 -10 40 0 22 5
40 10 40 6 0 9 -3 8 -7z m3928 -40 c-11 -11 -19 6 -11 24 8 17 8 17 12 0 3
-10 2 -21 -1 -24z m14 -34 c0 -5 -4 -9 -10 -9 -5 0 -10 7 -10 16 0 8 5 12 10
9 6 -3 10 -10 10 -16z m-3860 -49 c0 -6 -4 -10 -10 -10 -5 0 -10 5 -10 10 0 6
-3 9 -7 9 -26 -4 -42 3 -37 16 5 13 9 13 35 -1 16 -8 29 -19 29 -24z m-96 21
c7 -10 -43 -46 -51 -37 -7 7 26 46 38 46 4 0 10 -4 13 -9z m4016 -34 c0 -5 6
-5 13 -1 7 4 7 2 -2 -7 -10 -10 -15 -11 -18 -2 -2 7 -11 9 -19 6 -8 -3 -14 0
-14 7 0 9 -4 9 -17 -1 -15 -13 -15 -12 -5 7 6 12 8 25 4 29 -4 4 8 -1 25 -12
18 -10 33 -22 33 -26z m-85 2 c4 -11 4 -23 1 -26 -3 -4 -6 2 -6 12 0 13 -3 15
-13 6 -8 -6 -17 -8 -20 -4 -4 3 -7 2 -7 -4 0 -6 -7 -14 -16 -17 -17 -6 -12 6
14 37 20 23 39 22 47 -4z m353 -51 c-2 -12 -9 -23 -15 -26 -9 -2 -13 10 -13
44 0 47 1 48 16 26 8 -12 14 -32 12 -44z m-4251 10 c-3 -8 -6 -5 -6 6 -1 11 2
17 5 13 3 -3 4 -12 1 -19z m-487 -2 c0 -2 -7 -7 -16 -10 -8 -3 -12 -2 -9 4 6
10 25 14 25 6z m85 -6 c3 -6 -1 -7 -9 -4 -18 7 -21 14 -7 14 6 0 13 -4 16 -10z
m-148 -52 c-3 -8 -6 -5 -6 6 -1 11 2 17 5 13 3 -3 4 -12 1 -19z m4853 -23 c0
-8 -4 -15 -10 -15 -5 0 -10 4 -10 10 0 5 -6 7 -14 4 -11 -4 -13 0 -9 15 4 17
9 19 24 10 10 -5 19 -16 19 -24z m-373 3 c-3 -8 -6 -5 -6 6 -1 11 2 17 5 13 3
-3 4 -12 1 -19z m286 -15 c-9 -7 -22 -13 -29 -13 -7 0 -14 -6 -17 -12 -2 -7
-7 -10 -11 -7 -9 9 34 60 45 54 5 -4 9 0 9 7 0 9 3 9 10 -2 7 -11 5 -19 -7
-27z m119 3 c7 4 8 2 4 -4 -11 -18 -26 -14 -25 6 0 10 3 12 6 4 2 -6 10 -9 15
-6z m-105 -68 c-3 -8 -6 -5 -6 6 -1 11 2 17 5 13 3 -3 4 -12 1 -19z m-4670
-50 c-3 -8 -6 -5 -6 6 -1 11 2 17 5 13 3 -3 4 -12 1 -19z m2730 -978 c-1 -17
-7 -30 -13 -30 -6 0 -10 10 -8 23 1 12 3 28 3 35 1 7 5 11 11 7 5 -3 8 -19 7
-35z m-1347 -49 c0 -10 -6 -23 -13 -29 -10 -9 -13 -5 -11 16 2 41 3 44 14 37
6 -3 10 -14 10 -24z m1345 -1 c3 -5 1 -10 -4 -10 -6 0 -11 5 -11 10 0 6 2 10
4 10 3 0 8 -4 11 -10z m36 -9 c2 2 13 -2 24 -8 16 -10 18 -14 8 -24 -10 -9
-13 -10 -13 -1 0 6 -7 9 -15 6 -8 -4 -15 -1 -15 6 0 6 -4 9 -9 6 -5 -4 -7 3
-4 15 4 13 8 17 13 9 4 -6 9 -10 11 -9z m-61 -18 c0 -8 -5 -11 -10 -8 -6 3
-13 -1 -16 -9 -3 -9 -10 -13 -15 -10 -5 3 -9 0 -9 -7 0 -7 -3 -10 -6 -7 -3 4
2 17 10 30 17 27 46 33 46 11z m125 -31 c-8 -8 -25 10 -19 20 4 6 9 5 15 -3 4
-7 6 -15 4 -17z m-810 9 c3 -5 1 -12 -5 -16 -5 -3 -10 1 -10 9 0 18 6 21 15 7z
m-26 -32 c9 -27 9 -29 -3 -19 -12 9 -19 7 -35 -9 -12 -12 -21 -19 -21 -16 0 3
-10 1 -22 -5 l-23 -11 22 19 c12 11 19 23 15 27 -4 5 -2 5 5 1 7 -3 20 4 30
18 10 14 19 26 20 26 0 0 6 -14 12 -31z m-638 4 c10 -12 10 -14 1 -9 -7 4 -15
1 -18 -8 -3 -9 -10 -13 -15 -10 -5 3 -9 0 -9 -6 0 -6 -4 -9 -9 -6 -5 4 -12 0
-15 -6 -3 -7 -4 -4 -3 7 2 11 9 19 15 18 7 -2 17 6 24 17 15 24 13 24 29 3z
m86 3 c11 -10 -8 -24 -27 -19 -27 7 -26 33 1 28 12 -3 24 -6 26 -9z m667 -9
c3 4 6 1 6 -6 0 -7 4 -10 9 -7 10 6 25 -24 16 -32 -3 -3 -5 0 -5 7 0 8 -7 11
-15 7 -8 -3 -15 -1 -15 5 0 6 -7 9 -15 5 -8 -3 -15 -1 -15 4 0 5 -7 7 -15 4
-8 -4 -15 -1 -15 6 0 6 -5 8 -12 4 -9 -6 -9 -3 1 9 12 15 16 15 41 2 15 -8 30
-11 34 -8z m633 -9 c-3 -8 -6 -5 -6 6 -1 11 2 17 5 13 3 -3 4 -12 1 -19z
m-1281 -15 c-10 -10 -19 5 -10 18 6 11 8 11 12 0 2 -7 1 -15 -2 -18z"/>
<path d="M3435 5873 c-16 -8 -49 -31 -71 -49 l-42 -34 24 -82 c17 -59 24 -107
24 -169 0 -67 4 -91 16 -104 23 -22 77 -11 139 30 28 18 74 45 103 60 28 16
52 34 52 40 0 7 -13 18 -30 25 -32 13 -53 52 -111 198 -45 111 -49 114 -104
85z m75 -149 c0 -13 -4 -24 -9 -24 -11 0 -21 25 -21 52 0 17 3 18 15 8 8 -7
15 -23 15 -36z m60 -75 c0 -4 -13 -3 -29 2 -19 7 -28 16 -24 24 4 12 9 12 29
-2 13 -8 24 -19 24 -24z m-99 -1 c-13 -10 -27 -15 -32 -12 -5 3 1 14 13 24 13
10 27 16 32 12 5 -3 -1 -13 -13 -24z m46 -60 c-3 -8 -6 -5 -6 6 -1 11 2 17 5
13 3 -3 4 -12 1 -19z m-30 -30 c-3 -8 -6 -5 -6 6 -1 11 2 17 5 13 3 -3 4 -12
1 -19z"/>
<path d="M5452 2610 c-40 -9 -109 -57 -124 -84 -6 -11 -15 -57 -19 -101 -4
-44 -13 -136 -20 -203 -11 -121 -11 -124 10 -145 17 -18 32 -21 82 -20 36 1
71 9 85 18 42 27 74 88 85 159 12 74 8 99 -16 90 -8 -3 -15 -1 -15 6 0 6 -5 8
-12 4 -9 -6 -9 -3 1 9 10 12 18 14 31 7 17 -9 19 -3 25 63 4 39 7 101 8 137
l2 65 -45 2 c-25 1 -60 -2 -78 -7z m33 -119 c-3 -11 -1 -22 5 -26 6 -4 8 -16
5 -26 -4 -11 -2 -26 4 -33 9 -11 6 -15 -12 -18 -24 -5 -24 -3 -24 59 1 46 5
63 15 63 9 0 11 -7 7 -19z m10 -120 c3 -5 1 -12 -5 -16 -5 -3 -10 1 -10 9 0
18 6 21 15 7z m-26 -32 c9 -27 9 -29 -3 -19 -12 9 -19 7 -35 -9 -12 -12 -21
-19 -21 -16 0 3 -10 1 -22 -5 l-23 -11 22 19 c12 11 19 23 15 27 -4 5 -2 5 5
1 7 -3 20 4 30 18 10 14 19 26 20 26 0 0 6 -14 12 -31z"/>
</g>
</svg>
